<svg xmlns="http://www.w3.org/2000/svg" viewBox="0 0 458 458" style="enable-background:new 0 0 458 458" xml:space="preserve"><path d="M111.938 135.598c11.046 0 20-8.954 20-20V21.597c0-11.046-8.954-20-20-20s-20 8.954-20 20v94.001c0 11.046 8.954 20 20 20zM346.063 135.598c11.046 0 20-8.954 20-20V21.597c0-11.046-8.954-20-20-20s-20 8.954-20 20v94.001c0 11.046 8.954 20 20 20z"/><path d="M443 82.403h-46.938v33.195c0 27.614-22.386 50-50 50s-50-22.386-50-50V82.403H161.938v33.195c0 27.614-22.386 50-50 50s-50-22.386-50-50V82.403H15c-8.284 0-15 6.716-15 15v89.641h458V97.403c0-8.284-6.716-15-15-15zM0 441.403c0 8.284 6.716 15 15 15h428c8.284 0 15-6.716 15-15V227.044H0v214.359zm244.191-128.357a15.17 15.17 0 0 1 9.127-13.907c7.49-3.249 16.316-9.028 21.176-13.393a15.133 15.133 0 0 1 10.121-3.88h19.254a7.957 7.957 0 0 1 7.957 7.958v80.903h11.445c8.275 0 14.984 6.708 14.984 14.984 0 8.275-6.708 14.984-14.984 14.984h-59.934c-8.275 0-14.984-6.708-14.984-14.984 0-8.275 6.708-14.984 14.984-14.984h14.567V317.66c-2.163 2.886-6.797 6.077-12.243 8.754a14.894 14.894 0 0 1-14.445-.711 14.895 14.895 0 0 1-7.025-12.647v-.01zm-120.896 77.631c2.691-29.175 18.127-37.168 47.125-52.83 4.622-2.493 12.811-7.06 15.92-11.134 3.842-5.044 1.97-18.001-14.359-18.001-5.549 0-11.094 1.106-17.704 5.967-6.262 4.605-14.984 3.637-20.067-2.244l-.594-.688c-3.026-3.501-4.246-8.216-3.31-12.747s3.925-8.371 8.09-10.387c22.329-10.811 56.654-13.101 73.853.952 7.977 6.523 11.966 15.332 11.966 26.43 0 32.434-40.129 38.997-54.315 54.731h41.622c8.275 0 14.984 6.708 14.984 14.984 0 8.275-6.708 14.984-14.984 14.984h-79.1a9.172 9.172 0 0 1-6.772-3 9.17 9.17 0 0 1-2.355-7.017z"/></svg>